<svg xmlns="http://www.w3.org/2000/svg" xml:space="preserve" width="800" height="800" viewBox="0 0 508 508"><path d="M464 44a150 150 0 0 0-253 139L18 395a68 68 0 0 0 2 93c36 36 81 14 93 3l212-194A150 150 0 0 0 464 44zM94 470c-7 6-33 20-54-1a39 39 0 0 1-1-55l182-200a151 151 0 0 0 73 73L94 470zm178-233c-47-47-48-122-3-170a749 749 0 0 0 172 172c-48 45-123 44-169-2zm187-19A723 723 0 0 1 290 49a122 122 0 0 1 169 169z"/><path d="M217 291c-6-5-15-5-20 0l-26 26c-6 6-6 15 0 20 5 5 14 7 20 0l26-26c5-5 5-14 0-20z"/></svg>