<?xml version="1.0" standalone="no"?>
<!DOCTYPE svg PUBLIC "-//W3C//DTD SVG 20010904//EN"
 "http://www.w3.org/TR/2001/REC-SVG-20010904/DTD/svg10.dtd">
<svg version="1.0" xmlns="http://www.w3.org/2000/svg"
 width="260.000000pt" height="260.000000pt" viewBox="0 0 260.000000 260.000000"
 preserveAspectRatio="xMidYMid meet">
<metadata>
Created by potrace 1.14, written by Peter Selinger 2001-2017
</metadata>
<g transform="translate(0.000000,260.000000) scale(0.100000,-0.100000)"
fill="#000000" stroke="none">
<path d="M1296 2352 c-3 -5 -21 -51 -40 -103 -34 -92 -170 -447 -224 -584
l-27 -70 -368 -3 c-216 -1 -367 -6 -365 -11 2 -5 134 -107 293 -226 160 -120
297 -225 307 -234 15 -15 9 -34 -83 -276 -179 -468 -190 -499 -187 -512 2 -7
142 93 328 233 179 135 337 254 351 265 l26 18 353 -264 c194 -146 355 -263
358 -261 2 3 -23 76 -56 163 -33 87 -99 259 -146 383 -47 124 -86 230 -86 236
0 5 137 113 305 239 168 126 305 233 305 237 0 4 -165 9 -367 10 l-367 3 -33
85 c-17 47 -68 180 -113 295 -44 116 -95 249 -112 298 -30 82 -40 98 -52 79z"/>
</g>
</svg>
